<?xml version="1.0" encoding="UTF-8" standalone="no"?>
<!-- Created with Inkscape (http://www.inkscape.org/) -->

<svg
   xmlns:dc="http://purl.org/dc/elements/1.1/"
   xmlns:cc="http://creativecommons.org/ns#"
   xmlns:rdf="http://www.w3.org/1999/02/22-rdf-syntax-ns#"
   xmlns:svg="http://www.w3.org/2000/svg"
   xmlns="http://www.w3.org/2000/svg"
   xmlns:sodipodi="http://sodipodi.sourceforge.net/DTD/sodipodi-0.dtd"
   xmlns:inkscape="http://www.inkscape.org/namespaces/inkscape"
   id="svg2"
   version="1.1"
   inkscape:version="0.91 r13725"
   xml:space="preserve"
   width="430"
   height="537"
   viewBox="0 0 430 537.00002"
   sodipodi:docname="puput-logo.svg"><metadata
     id="metadata8"><rdf:RDF><cc:Work
         rdf:about=""><dc:format>image/svg+xml</dc:format><dc:type
           rdf:resource="http://purl.org/dc/dcmitype/StillImage" /><dc:title></dc:title></cc:Work></rdf:RDF></metadata><defs
     id="defs6"><clipPath
       clipPathUnits="userSpaceOnUse"
       id="clipPath16"><path
         d="m 0,990.099 1809.181,0 L 1809.181,0 0,0 0,990.099 Z"
         id="path18"
         inkscape:connector-curvature="0" /></clipPath></defs><sodipodi:namedview
     pagecolor="#ffffff"
     bordercolor="#666666"
     borderopacity="1"
     objecttolerance="10"
     gridtolerance="10"
     guidetolerance="10"
     inkscape:pageopacity="0"
     inkscape:pageshadow="2"
     inkscape:window-width="1908"
     inkscape:window-height="880"
     id="namedview4"
     showgrid="false"
     borderlayer="false"
     inkscape:zoom="0.6420588"
     inkscape:cx="350.01402"
     inkscape:cy="228.24816"
     inkscape:window-x="6"
     inkscape:window-y="23"
     inkscape:window-maximized="0"
     inkscape:current-layer="g10" /><g
     id="g10"
     inkscape:groupmode="layer"
     inkscape:label="puput-logo"
     transform="matrix(1.25,0,0,-1.25,0,537.00014)"><g
       clip-path="url(#clipPath16)"
       id="g14"
       transform="matrix(0.76694108,0,0,0.76694108,-151.46534,-145.6466)"><g
         transform="translate(261.3911,677.4063)"
         id="g20"><path
           inkscape:connector-curvature="0"
           id="path22"
           style="fill:#cccccc;fill-opacity:1;fill-rule:nonzero;stroke:none"
           d="m 0,0 242.667,65.067 c 19.4,5.177 39.563,-6.43 44.795,-25.885 l 65.013,-242.721 c 5.231,-19.346 -6.431,-39.509 -25.831,-44.741 L 83.978,-313.293 c -19.456,-5.231 -39.619,6.431 -44.796,25.831 L -25.885,-44.795 C -31.063,-25.34 -19.455,-5.177 0,0" /></g><g
         transform="translate(381.1714,295.0132)"
         id="g24"><path
           inkscape:connector-curvature="0"
           id="path26"
           style="fill:#2a2223;fill-opacity:1;fill-rule:nonzero;stroke:none"
           d="m 0,0 c -8.392,-10.136 2.071,-43.269 5.231,-75.476 -4.577,-33.514 -45.884,-22.942 -66.266,2.235 -0.817,-0.163 -1.199,0.326 -1.253,1.308 l 0,0.6 c 0.491,10.463 24.795,59.671 23.651,78.146 -5.014,30.026 -13.025,69.48 -15.912,99.453 8.882,-11.335 42.614,-8.937 45.504,-4.141 0.489,0.708 -37.167,-0.165 -46.159,13.678 -0.872,13.678 -0.544,9.918 1.799,22.942 12.752,-20.055 79.617,-9.646 81.742,-7.193 0.764,1.198 -69.263,-1.853 -80.162,21.634 2.343,9.7 4.141,12.425 9.264,21.526 9.265,-24.687 75.258,-8.12 77.002,-6.376 0.654,1.199 -60.925,-4.305 -72.206,18.093 13.842,21.907 42.506,38.419 38.91,70.353 -1.745,15.476 -32.97,11.281 -42.18,17.929 -5.286,3.815 -8.828,8.228 5.504,16.784 1.09,0.709 -14.169,4.142 -14.55,12.697 -0.381,8.556 6.212,6.431 6.703,8.665 0.654,3.052 -4.741,1.689 -3.706,13.733 1.581,18.746 14.713,7.52 16.131,11.281 1.525,4.032 -9.264,1.089 -6.213,14.169 3.325,14.386 20.164,-1.744 22.18,1.416 2.779,4.468 -9.046,9.645 -8.828,20.926 0.163,7.576 9.7,9.537 9.809,10.191 0.327,1.635 -1.036,3.706 1.362,6.921 6.594,8.719 16.566,-4.905 19.727,-5.668 0.436,-3.161 -4.904,4.469 6.267,8.338 15.804,3.706 17.167,-32.316 18.856,-31.662 0.872,13.57 8.065,25.232 17.329,22.071 2.398,0.708 -0.926,-6.976 2.834,-6.267 1.471,-0.981 -2.724,5.504 5.123,4.414 14.986,-5.668 4.795,-38.419 4.904,-38.365 5.123,4.087 9.482,5.886 12.915,6.104 l 0,-67.683 c -3.16,0 -5.722,-2.561 -5.722,-5.722 0,-3.16 2.562,-5.722 5.722,-5.722 l 0,-20.163 C 56.948,239.016 58.8,215.747 63.813,202.396 c 4.306,-11.335 8.284,-20.981 11.499,-29.81 l 0,-65.121 C 64.958,83.214 42.342,51.226 0,0 m 75.312,172.586 c 8.12,-22.125 11.117,-39.182 0,-65.121 l 0,65.121 z m 0,177.873 c 11.935,0.654 13.842,-17.82 4.088,-30.518 -0.818,-1.089 10.953,-1.362 13.678,-4.358 12.643,-13.788 -6.485,-27.413 -4.36,-29.592 1.307,-1.363 3.107,-2.343 4.687,-3.596 10.735,-8.774 37.874,-1.689 74.386,-34.551 -49.809,15.586 -77.656,13.025 -92.479,3.325 l 0,20.163 c 3.161,0 5.777,2.562 5.777,5.722 0,3.161 -2.616,5.722 -5.777,5.722 l 0,67.683 z" /></g><g
         transform="translate(689.2217,564.3286)"
         id="g28" /><g
         transform="translate(976.3311,365.1099)"
         id="g32" /><g
         transform="translate(1023.2061,435.4224)"
         id="g36" /><g
         transform="translate(1339.6123,365.1099)"
         id="g40" /><g
         transform="translate(1445.0811,376.8286)"
         id="g44" /></g></g></svg>